<svg class="logo" height="900" id="svg2" version="1.1" viewbox="0 0 900 900" width="900" xmlns="http://www.w3.org/2000/svg" xmlns:cc="http://creativecommons.org/ns#" xmlns:dc="http://purl.org/dc/elements/1.1/" xmlns:rdf="http://www.w3.org/1999/02/22-rdf-syntax-ns#" xmlns:svg="http://www.w3.org/2000/svg"><metadata id="metadata9"><rdf:rdf><cc:work rdf:about=""><dc:format>image/svg+xml</dc:format><dc:type rdf:resource="http://purl.org/dc/dcmitype/StillImage"></dc:type><dc:title></dc:title></cc:work></rdf:rdf></metadata><defs id="defs7"></defs><g id="g855"><rect height="901.56116" id="rect4197" style="fill:#000000;fill-opacity:1" width="901.56116" x="-0.78057927" y="-1.56115"></rect><rect height="924.93164" id="rect9625" style="opacity:1;fill:#ffffff;fill-opacity:1;stroke:none;stroke-width:2.11999989;stroke-linecap:butt;stroke-linejoin:round;stroke-miterlimit:4.5;stroke-dasharray:none;stroke-opacity:1" width="924.93164" x="-12.46582" y="-12.46582"></rect><path d="M 2e-6,450 2e-6,1.3499999e-6 l 449.999998,0 450,0 L 900,450 900,900 450,900 2e-6,900 l 0,-450 z m 838.619998,0 0,-391.859998 -388.62,0 -388.619998,0 0,391.859998 0,391.86 388.619998,0 388.62,0 0,-391.86 z m -755.459998,0.09 0,-359.729998 366.929998,0 366.93,0 0,359.729998 0,359.73 -366.93,0 -366.929998,0 0,-359.73 z m 222.119998,1.26 0,-198.27 -28.35,0 -28.35,0 0,198.27 0,198.27 28.35,0 28.35,0 0,-198.27 z m 349.02,175.41 0,-21.06 -108.54,0 c -59.697,0 -108.54,-0.047 -108.54,-0.10436 0,-0.0574 19.04908,-30.02741 42.3313,-66.6 L 521.8826,472.5 l 66.2087,0 66.2087,0 0,-21.06 0,-21.06 -50.4,0 c -27.72,0 -50.4,-0.0371 -50.4,-0.0826 0,-0.0454 22.6771,-32.22266 50.39354,-71.505 l 50.39355,-71.42243 0.006,-16.065 0.006,-16.065 -135.36,0 -135.36,0 0,21.03271 0,21.0327 34.47,66.46942 c 18.9585,36.55818 34.47,66.49973 34.47,66.53675 0,0.037 -13.10175,0.0878 -29.115,0.11288 l -29.115,0.0455 -0.0457,21.01457 -0.0458,21.01458 37.34813,0.0454 37.34813,0.0454 -50.48739,74.36844 -50.48738,74.36844 0,13.24656 0,13.24656 143.19,0 143.19,0 0,-21.06 z M 499.97306,424.24861 C 499.73278,423.71037 486.68143,395.082 470.97005,360.63 455.25868,326.178 442.3621,297.84825 442.31098,297.675 c -0.0884,-0.29963 3.3912,-0.315 71.29803,-0.315 39.26504,0 71.39099,0.0433 71.39099,0.0962 0,0.12717 -84.04846,127.17774 -84.35398,127.51236 -0.20008,0.21916 -0.30274,0.10933 -0.67296,-0.72 z" id="path3338" style="fill:#000000"></path><path d="M 75.711304,74.930733 H 824.2887 V 823.50813 H 75.711304 Z" id="rect4197-5" style="fill:none;fill-opacity:1;stroke:#ffffff;stroke-width:28.177;stroke-miterlimit:4;stroke-dasharray:none;stroke-opacity:1"></path></g></svg>